<svg width="512" height="512" viewBox="0 0 512 512" fill="none" xmlns="http://www.w3.org/2000/svg">
<defs>
<linearGradient id="grad1" x1="0%" y1="0%" x2="100%" y2="100%">
<stop offset="0%" style="stop-color:#4c2882;stop-opacity:1" />
<stop offset="100%" style="stop-color:#00a2e8;stop-opacity:1" />
</linearGradient>
</defs>
<rect width="512" height="512" rx="122.88" fill="url(#grad1)"/>
<g fill="white" transform="translate(0, -20)">
    <!-- Robot and Book Icon -->
    <path d="M256 96 C234.2 96 222.3 115.3 222.3 128.5 C222.3 145.8 245.2 158.4 256 169.2 C266.8 158.4 289.7 145.8 289.7 128.5 C289.7 115.3 277.8 96 256 96 Z M241.9 173.4 V 169.2 H 270.1 V 173.4 C 270.1 175.7 268.2 177.6 265.9 177.6 H 246.1 C 243.8 177.6 241.9 175.7 241.9 173.4 Z" />
    <path d="M256 113.8C252.8 113.8 250.2 116.4 250.2 119.6C250.2 122.8 252.8 125.4 256 125.4C259.2 125.4 261.8 122.8 261.8 119.6C261.8 116.4 259.2 113.8 256 113.8Z" />
    <path d="M320.6,190.2H191.4c-11.3,0-20.4,9.1-20.4,20.4v61.3c0,11.3,9.1,20.4,20.4,20.4h129.2c11.3,0,20.4-9.1,20.4-20.4v-61.3C341,199.3,331.9,190.2,320.6,190.2z M221.7,214.8c-4.5,0-8.2-3.7-8.2-8.2s3.7-8.2,8.2-8.2s8.2,3.7,8.2,8.2S226.2,214.8,221.7,214.8z M290.3,214.8c-4.5,0-8.2-3.7-8.2-8.2s3.7-8.2,8.2-8.2s8.2,3.7,8.2,8.2S294.8,214.8,290.3,214.8z M298.5,239.5H213.5v-8.2h85V239.5z" />
    <path d="M351.4,292.3c-24.6-12.3-52.5-18.4-80.4-18.4s-55.8,6.1-80.4,18.4c-5.3,2.6-8.2,8.4-6.8,14.1l14.1,57.6c1.1,4.5,5.1,7.7,9.8,7.7h127c4.7,0,8.7-3.2,9.8-7.7l14.1-57.6C359.6,300.7,356.7,294.9,351.4,292.3z M256,346.7L256,346.7c-5.6,0-10.2-4.6-10.2-10.2v-26.6c0-5.6,4.6-10.2,10.2-10.2h0c5.6,0,10.2,4.6,10.2,10.2v26.6C266.2,342.1,261.6,346.7,256,346.7z" />
</g>
<text x="256" y="455" font-family="system-ui, -apple-system, BlinkMacSystemFont, 'Segoe UI', Roboto, Helvetica, Arial, sans-serif" font-size="64" fill="white" text-anchor="middle" font-weight="bold">AI GUIDE</text>
</svg>
